<?xml version="1.0" encoding="UTF-8"?>
<svg id="Layer_1" data-name="Layer 1" xmlns="http://www.w3.org/2000/svg" viewBox="0 0 1000 446.21">
  <style>
    rect, path, polygon { fill: #000; }
    @media (prefers-color-scheme: dark) {
      rect, path, polygon { fill: #FFF; }
    }
  </style>
  <rect x="983.16" y="106.96" width="16.83" height="31.13"/>
  <rect x="937.94" y="68.75" width="15.54" height="32.97"/>
  <rect x="889.88" y="93.59" width="28.12" height="14.8"/>
  <rect x="904.12" y="371.75" width="26.46" height="13.71"/>
  <rect x="896.65" y="162.19" width="25.96" height="13.59" transform="translate(739.16 1078.33) rotate(-89.91)"/>
  <rect x="937.35" y="136.74" width="22.71" height="13.96" transform="translate(-.49 3.25) rotate(-.2)"/>
  <rect x="29.86" y="329.48" width="12.33" height="22.61" transform="translate(-.9 .1) rotate(-.15)"/>
  <rect x="896.68" y="425.18" width="22.18" height="11.5" transform="translate(-.57 1.21) rotate(-.08)"/>
  <rect x="54.41" y="362" width="21.31" height="10.94"/>
  <rect x="91.75" y="393.1" width="20.97" height="10.32" transform="translate(-1.29 .33) rotate(-.19)"/>
  <rect x="79.38" y="427.76" width="9.85" height="18.45"/>
  <rect x="864.82" y="389.67" width="6.29" height="15.77" transform="translate(168.09 1046.86) rotate(-67.46)"/>
  <path d="M184.83,325.81c-12.84-.93-21.72-11.08-19.34-24.25l18.45-102.34,51.71.07c4.57,0,7.92-2.32,9.51-6.72l2.72-13.43c-9.76.09-25.37.04-50.71-.04-25.41-.08-50.84-.23-60.65-.29l-4.95,7.98h-13.71c-2.15,4.14-6.47,6.98-11.45,6.98-7.11,0-12.9-5.79-12.9-12.9s5.79-12.9,12.9-12.9c5.3,0,9.85,3.21,11.84,7.78h7.19l4.98-8.02,3.09.02c52.22.34,97.05.45,116.63.31l3.87-19.06c-8.57-.08-26.68.04-45.6.34l-3.13.05-4.99-8.05h-7.09c-2.13,4.21-6.48,7.11-11.51,7.11-7.11,0-12.9-5.79-12.9-12.9s5.79-12.9,12.9-12.9c5.24,0,9.76,3.15,11.77,7.65h12.96l4.93,7.95c25.5-.4,38.24-.47,44.87-.2l2.29-11.3c0-5.57-4.3-8.06-9.46-8.05l-49.39.16,12.65-69.1-18.1-.41-.78,15.32-18.22-3.27.1-12.42c-14.84,1.13-27.15,2.88-40.43,5.2l-2.11,17.64-10.58-2.7-1.64-11.73-11.56-1.03-11.48,62.34-41.48.17-1.21,4.34,14.18,9.02c-4.42,4.15-8.78,5.72-14.46,2.57l-1.68,9.64-14.46.1-.1,15.67,12.32-.06-4.41,23.29-10.56,1.26c-.34,2.14-.56,7.51-.41,9.54,2.77.15,5.03.03,5.25.97l.95,3.99,39.51-.03-5.87,31.11h71.43v35.75h5.1v19.81h-19.81v-19.81h4.9v-25.93h-63.47l-11.37,60.25,7.89,3.46-12.74,1.09,1.76,13.26,14.59,2.52-13.99,4.13,1.61,10.75,15.54-5.89c-3.21,2.71-6.81,5.34-9.37,8.14-1.63,1.78-.36,8.56,1.98,9.46l16.72,6.48,16.11-13.27,5.69,10.24c-9.19,3.02-4.88,12.13-15.73,19.09l-.08,13.07,25.84-1.48,6.82,9.96,7.54-2.09c7.51-2.08,13.04-5.37,18.54-11.43l3.23,3.23-19.23,15.82c3.8,2.01,9.2,4.08,13.46,5.18l9-4.96-1.29,13.45c22,.21,41.89-4.27,61.43-12.82,2.36-1.03,3.93-3.32,3.99-5.89l1.52-63.18c.37-15.27-17.34-1.36-37.84-2.85ZM76.48,156.45l-8.65-.76-1.52-14.82,12.69,4.15-2.52,11.43ZM118.65,309.36h-38.4v-43h38.4v43ZM209.92,362.17h-4.84v21.9h-21.07c-1.66,3.02-4.81,4.9-8.34,4.9-5.27,0-9.55-4.28-9.55-9.55s4.29-9.55,9.55-9.55c3.25,0,6.28,1.69,8.02,4.39h11.58v-12.08h-5.16v-19.81h19.81v19.81Z"/>
  <rect x="90.06" y="276.18" width="18.78" height="23.37"/>
  <path d="M34.52,382.05c-.46-.7-1.02-1.27-1.68-1.73-.66-.46-1.42-.8-2.25-1.03-1.05-.28-2.07-.34-3.06-.17-.99.17-1.93.59-2.81,1.25-.88.66-1.67,1.58-2.37,2.76-.7,1.18-1.28,2.64-1.75,4.38l-1.19,4.4c-.37,1.39-.59,2.66-.66,3.83-.06,1.16,0,2.2.22,3.12s.55,1.73,1,2.43c.45.7,1.01,1.27,1.69,1.73.67.46,1.43.8,2.27,1.03,1.05.28,2.07.34,3.06.17.99-.17,1.92-.59,2.8-1.25.87-.66,1.66-1.59,2.35-2.77.7-1.18,1.28-2.64,1.75-4.37l1.19-4.4c.38-1.39.6-2.66.67-3.82s0-2.2-.21-3.12-.55-1.73-1.01-2.43ZM30.31,387.21c-.1.59-.25,1.27-.46,2.04l-1.56,5.79c-.26.97-.53,1.78-.8,2.42-.27.64-.54,1.15-.81,1.5-.27.36-.54.6-.8.71-.26.12-.53.14-.79.07-.21-.06-.4-.17-.56-.33s-.29-.39-.38-.68-.13-.65-.12-1.08.06-.94.16-1.54.25-1.29.46-2.07l1.56-5.79c.26-.96.52-1.76.78-2.4.26-.64.53-1.14.8-1.49.27-.35.54-.59.81-.71.27-.12.54-.15.82-.07.21.06.39.17.55.33.16.17.28.39.36.68s.12.65.13,1.07c0,.43-.05.93-.14,1.52Z"/>
  <path d="M963.58,175.48c-.65-.8-1.45-1.49-2.4-2.07-1.18-.72-2.42-1.16-3.7-1.31-1.28-.15-2.58.03-3.9.52-1.32.49-2.62,1.34-3.9,2.54-1.28,1.2-2.52,2.78-3.72,4.75l-3.04,4.98c-.96,1.57-1.69,3.06-2.18,4.46s-.78,2.7-.85,3.91c-.07,1.21.05,2.32.35,3.33.3,1.02.79,1.93,1.45,2.73.66.81,1.47,1.5,2.42,2.08,1.18.72,2.42,1.16,3.7,1.31s2.57-.03,3.88-.53,2.6-1.36,3.88-2.56c1.28-1.2,2.52-2.78,3.72-4.74l3.04-4.98c.96-1.57,1.69-3.06,2.19-4.45.5-1.4.79-2.7.86-3.91s-.05-2.32-.36-3.34-.79-1.93-1.44-2.73ZM958.73,181.21c-.15.52-.39,1.13-.72,1.82-.33.69-.77,1.47-1.3,2.34l-4,6.55c-.67,1.1-1.29,1.99-1.84,2.69-.56.69-1.07,1.21-1.54,1.55s-.88.54-1.24.59c-.37.05-.7-.01-1-.2-.24-.15-.43-.35-.57-.6-.14-.26-.21-.58-.22-.97s.08-.84.24-1.37c.17-.52.41-1.13.74-1.83.33-.7.77-1.49,1.31-2.37l4-6.55c.66-1.08,1.27-1.97,1.82-2.66.55-.69,1.06-1.2,1.52-1.54.46-.33.88-.53,1.25-.58.37-.05.72.02,1.03.2.24.14.42.35.55.61.13.26.2.58.19.96s-.08.84-.23,1.36Z"/>
  <path d="M949.92,406.92c-.47-1.49-1.01-2.79-1.63-3.89-.61-1.1-1.29-2.01-2.02-2.73-.73-.72-1.51-1.26-2.34-1.63-.83-.37-1.68-.57-2.55-.6-.87-.03-1.76.1-2.66.38-1.12.35-2.09.9-2.9,1.64-.81.74-1.42,1.67-1.84,2.79s-.6,2.43-.55,3.91c.05,1.49.38,3.16.97,5.03l1.49,4.72c.47,1.49,1.02,2.79,1.64,3.88.62,1.1,1.3,2.01,2.03,2.73.73.72,1.51,1.26,2.33,1.63.82.37,1.67.57,2.56.6.89.03,1.78-.1,2.68-.39,1.12-.36,2.09-.9,2.9-1.64.81-.74,1.42-1.66,1.82-2.78.41-1.12.58-2.42.53-3.92-.06-1.49-.38-3.17-.96-5.02l-1.49-4.72ZM946.34,419.85c-.17.26-.4.44-.68.53-.22.07-.46.08-.7.03-.24-.05-.49-.19-.74-.4-.25-.21-.5-.52-.74-.92-.24-.4-.5-.9-.76-1.5-.26-.6-.53-1.32-.79-2.16l-1.96-6.21c-.32-1.03-.56-1.91-.69-2.65-.14-.74-.18-1.35-.14-1.83.04-.48.15-.86.33-1.13s.41-.45.71-.55c.22-.07.46-.08.7-.02.24.06.48.2.73.41s.49.52.75.91c.25.39.51.88.76,1.48s.51,1.31.77,2.14l1.96,6.21c.33,1.04.56,1.93.69,2.68.13.75.18,1.36.14,1.85-.04.49-.15.86-.32,1.13Z"/>
  <polygon points="52.58 401.57 46.09 410.06 48.43 413.92 51.54 410.04 61.38 426.25 66.33 423.24 53.02 401.3 52.58 401.57"/>
  <polygon points="172.39 24.22 181.36 .18 180.88 0 170.19 .17 168.61 4.4 173.59 4.43 166.96 22.2 172.39 24.22"/>
  <polygon points="989.87 85.68 981.16 61.54 980.67 61.71 972.63 68.76 974.16 73 977.98 69.81 984.42 87.65 989.87 85.68"/>
  <polygon points="859.41 416.74 857.92 421 862.89 420.94 856.62 438.83 862.09 440.75 870.58 416.53 870.1 416.36 859.41 416.74"/>
  <path d="M506,130.4c-22.57-12.67-51.52-19-86.84-19-53.7,0-95.36,12.14-124.97,36.4-29.62,24.26-48.44,59.05-56.47,104.37-6.07,34.62-4.68,63.96,4.15,88.05,8.83,24.08,24.57,42.37,47.24,54.86,22.65,12.49,51.74,18.74,87.24,18.74,53.52,0,95.05-12.08,124.58-36.26,29.52-24.17,48.3-58.83,56.33-103.97,6.06-34.43,4.68-63.73-4.15-87.91-8.83-24.17-24.53-42.59-47.1-55.26ZM445.39,262.86c-3.75,23.19-9.95,40.32-18.6,51.38-8.65,11.06-22.08,16.59-40.27,16.59-13.03,0-22.53-2.9-28.5-8.7-5.98-5.79-9.41-13.82-10.31-24.08-.9-10.26-.27-21.99,1.88-35.19,3.75-23.55,9.9-40.85,18.47-51.92,8.56-11.06,22.03-16.59,40.41-16.59,13.02,0,22.52,2.95,28.5,8.83,5.97,5.88,9.41,14.01,10.3,24.35.89,10.35.27,22.12-1.88,35.33Z"/>
  <rect x="122.51" y="41.86" width="15.44" height="6.5"/>
  <rect x="133.28" y="17.48" width="17.27" height="8.74"/>
  <rect x="180.21" y="32.92" width="7.92" height="15.24"/>
  <rect x="198.9" y="28.05" width="15.03" height="7.11"/>
  <polygon points="15.64 151.98 0 151.98 0 158.89 .16 158.89 .16 158.94 15.8 158.94 15.8 152.04 15.64 152.04 15.64 151.98"/>
  <rect x="23.36" y="128.82" width="20.52" height="10.77"/>
  <path d="M890.56,136.48l-9.95-20.86-18.76,4.85,1.89,17.28c-4.36,4.08-9.02,7.36-14.8,10.09l8.6-9.22-3.8-11.28-10.26,6.74-1.32-15.08-29.65-.06c-5.01,0-9.82.89-11.2,6.87l-8.02,34.83c-10.8-26.27-31.64-43.31-59.18-47.37-25.83-3.81-51.73.37-74.73,11.27v72.83h-10.41l-4.98,5.81v53.64c2.19-1.72,4.95-2.76,7.94-2.76,7.11,0,12.9,5.79,12.9,12.9s-5.79,12.9-12.9,12.9-12.76-5.66-12.89-12.66l-6.09-3.34v-64.76l10.94-12.77h4.45v-55.91c-9.66,5.74-18.66,12.74-26.76,20.9-6.67,6.72-12.61,13.88-17.93,21.43v43.82l8.82,5.51v72.94c4.21,2.13,7.11,6.48,7.11,11.51,0,7.11-5.79,12.9-12.9,12.9s-12.9-5.79-12.9-12.9c0-5.25,3.15-9.76,7.66-11.77v-66.56l-8.82-5.51v-32.11c-7.62,14.16-13.43,29.45-17.75,45.72,0,0-7.53,28.93-7.47,55.1-.36,50.4,18.83,96.37,61.73,114-.04-9.09-.16-20.62-.35-32.47l-.05-3.13,8.04-4.99v-7.11c-4.28-2.1-7.24-6.49-7.24-11.57,0-7.11,5.79-12.9,12.9-12.9s12.9,5.79,12.9,12.9c0,5.19-3.09,9.67-7.53,11.71v13.11l-7.95,4.93c.24,15.13.36,25.74.36,33.28,4.96,1.35,10.18,2.39,15.68,3.03,9.81,1.15,19.51,1.03,28.9-.3v-40.89c-4.54-2-7.72-6.53-7.72-11.8,0-7.11,5.79-12.9,12.9-12.9s12.9,5.79,12.9,12.9c0,5-2.87,9.34-7.04,11.48v39.04c24.06-6.07,45.32-20.52,59.78-42.41,1.19,11,2.78,20.16,7.31,29.41,1.58,3.21,5.36,10.39,13.59,10.39l66.26.22,9.17-22.01-16.03-8.76c-1.62-.89-2.38-5.46-2.07-6.93l22.57,6.48,1.29-7.26,19.99,3.25,11.55-52.56c-13.27,4.08-31.13,9.56-33.91,2.53-.57-1.43-.89-4.3-.59-6.54-20.57-.09-38.86-.19-45.2-.23l-4.95,7.98h-12.66c-2.02,4.48-6.53,7.62-11.76,7.62-7.11,0-12.9-5.79-12.9-12.9s5.79-12.9,12.9-12.9c5.04,0,9.41,2.92,11.53,7.15h6.75l4.98-8.02,3.09.02c17.85.12,34.83.2,50.24.27l7.39-39.84c-5.31-.06-11.45-.15-18.64-.26l-4.93,7.95h-14.49c-2.23,3.87-6.4,6.48-11.17,6.48-7.11,0-12.9-5.79-12.9-12.9s5.79-12.9,12.9-12.9c5.49,0,10.17,3.45,12.03,8.28h7.49l4.99-8.05,3.13.05c8.28.13,16.4.23,23.64.29l5.67-30.56c-12.63.06-26.13.13-40.17.22l-3.09.02-4.98-8.02h-7.62c-2.08,4.33-6.5,7.33-11.62,7.33-7.11,0-12.9-5.79-12.9-12.9s5.79-12.9,12.9-12.9c5.16,0,9.6,3.05,11.67,7.43h13.71l4.95,7.98c7-.04,21.97-.13,39.2-.21l.74-4.01,5.53-2.34,2.28-11.27-10.41-2.9,13.6-4.58,3.54-18.88-10.13-6.7,4.31-13.76c1.33-4.24,3.77-7.82,7.14-11.1ZM693,159.89h10.5v-10.49h-10.5v-5.02h10.5v-7.91h7.91v-10.5h5.02v10.5h10.49v-10.5h5.02v10.5h7.91v7.91h10.5v5.02h-10.5v10.49h10.5v5.02h-10.5v7.91h-7.91v10.5h-5.02v-10.5h-10.49v10.5h-5.02v-10.5h-7.91v-7.91h-10.5v-5.02ZM751.8,303.36c-6.99,11.59-17.46,20.19-30.4,23.85-20.87,5.9-38.82-5.15-43.66-25.34-6.56-27.36,1.77-68.87,20.02-90.19,13.15-15.38,34.33-21.1,52.57-11.4,28.9,15.39,20.07,72.28,1.48,103.07Z"/>
</svg>