<?xml version="1.0" encoding="UTF-8"?>
<svg id="Ebene_1" data-name="Ebene 1" xmlns="http://www.w3.org/2000/svg" viewBox="0 0 857.82 369.77">
  <defs>
    <style>
      .cls-1 {
        fill: #fff;
      }
    </style>
  </defs>
  <rect x="819.94" y="98.28" width="25.45" height="13.76" transform="translate(727.07 937.78) rotate(-89.97)"/>
  <rect x="788.83" y="61.21" width="12.71" height="26.95"/>
  <rect x="749.53" y="81.52" width="22.98" height="12.1"/>
  <path d="M803.84,162.23c-1.44,5.29-12.53,5.25-14.12.24-1.49-4.68-1.63-11.8.02-16.33,1.76-4.85,12.21-4.8,13.96.04,1.57,4.35,1.55,10.88.15,16.05ZM798.89,159.86l.11-10.86c0-.88-1.53-2.56-2.3-2.85s-2.47,1.93-2.45,2.8l.28,11.3c.02.67,1.58,2.08,2.19,2.36s2.17-2,2.18-2.75Z"/>
  <rect x="761.17" y="308.9" width="21.63" height="11.2"/>
  <rect x="755.06" y="137.59" width="21.22" height="11.11" transform="translate(621.26 908.58) rotate(-89.91)"/>
  <rect x="788.34" y="116.79" width="18.57" height="11.41" transform="translate(-.42 2.76) rotate(-.2)"/>
  <path d="M80.26,333.48c-1.9,4.62-10.96,4.41-12.62-.07-1.45-3.9-1.49-10.41.12-14.3s10.38-3.87,12.29-.22,2.01,10.22.21,14.59ZM75.88,331.51l.31-8.76c.03-.83-.88-2.46-1.43-3.01-.41-.41-2.8.61-2.8,1.19l.07,10.51c0,.48,1.35,1.79,1.67,2.14s2.16-1.6,2.18-2.08Z"/>
  <rect x="65.07" y="274.35" width="10.08" height="18.48" transform="translate(-.74 .18) rotate(-.15)"/>
  <rect x="59.14" y="110.17" width="17.24" height="9.14"/>
  <rect x="755.09" y="352.58" width="18.13" height="9.4" transform="translate(-.47 1) rotate(-.08)"/>
  <rect x="89.38" y="296.69" width="8.94" height="17.42" transform="translate(-211.62 399.02) rotate(-89.95)"/>
  <rect x="115.67" y="326.36" width="17.14" height="8.44" transform="translate(-1.08 .41) rotate(-.19)"/>
  <rect x="102.04" y="358.2" width="15.08" height="8.05" transform="translate(-252.72 471.58) rotate(-89.96)"/>
  <rect x="7.45" y="139.59" width="14.69" height="7.44"/>
  <path d="M64.25,363.93l.05-12.29-4.43-2.35c3.08-2.12,5.85-3.4,9.39-4.06l.08,18.81-5.09-.11Z"/>
  <path d="M852.97,81.74v-14.78s-2.68.57-2.68.57c-.69.15-1.56-2.47-.91-2.74l8.15-3.37.29,20.34-4.85-.02Z"/>
  <path d="M3.33,130.68l.13-12.63-2.17.42c-.53.1-1.47-.86-1.25-1.35s1.45-1.77,2-1.94l5.84-1.74.2,17.27-4.73-.03Z"/>
  <path d="M39.46,107.32l.24-12.04-4.57-1.65c3.74-2.1,5.28-2.8,8.71-3.83l.1,17.59-4.48-.07Z"/>
  <polygon points="39.26 165.52 39.16 154.41 35.18 151.62 43.6 148.21 43.63 165.78 39.26 165.52"/>
  <rect x="43.28" y="125.99" width="5.74" height="12.4" transform="translate(-86.07 178.23) rotate(-89.95)"/>
  <rect x="729.05" y="323.55" width="5.14" height="12.89" transform="translate(146.41 879.27) rotate(-67.46)"/>
  <rect x="56.49" y="141.85" width="11.67" height="4.49" transform="translate(-93.79 127.45) rotate(-60.52)"/>
  <rect x="206.74" y="24.85" width="5.34" height="12.32" transform="translate(178.22 240.39) rotate(-89.95)"/>
  <path d="M743.5,163.92l-1.86,9.22-4.52,1.92-16.24,87.5c-.35,1.88-.07,4.5.42,5.75,2.28,5.74,16.88,1.27,27.72-2.07l-9.44,42.97-16.34-2.66-1.05,5.94-18.46-5.29c-.25,1.2.37,4.94,1.7,5.66l13.1,7.16-7.49,18-56.82-.18c-3.26-.01-7.17-5.87-8.45-8.5-3.71-7.57-5-15.06-5.98-24.05-18.08,27.36-49.13,40.5-81.52,36.69-50.5-5.94-72.7-49.79-72.35-98.75-4.58,12.55-8.98,24.45-16.19,36.07-15.35,24.71-37.91,43.51-65.53,53.46-33.47,12.06-69.87,13.34-103.82,3.05-42.32-12.83-64.4-45.95-66.83-89.49-3.9-70.02,41.06-133.02,110.53-146.72,21.8-4.3,43.61-4.41,65.37-.06,18.35,3.66,34.51,11.35,48.82,23.31,22.95,19.18,31.25,45.84,33.76,75.34,7.1-26.74,19.1-50.23,38.18-69.47,24.13-24.32,58.14-36.1,91.99-31.11,22.51,3.32,39.56,17.25,48.38,38.72l6.56-28.48c1.13-4.89,5.06-5.63,9.16-5.62l24.24.05,1.08,12.33,8.38-5.51,3.11,9.22-7.03,7.54c4.72-2.23,8.54-4.91,12.1-8.25l-1.55-14.13,15.34-3.96,8.14,17.05c-2.76,2.68-4.75,5.6-5.84,9.07l-3.53,11.25,8.28,5.48-2.89,15.44-11.12,3.74,8.51,2.37ZM320.03,188.4l5.31-8.36-8.46-6.54-.13-56.85-10.37,6.09.09,55.66,13.56,10ZM385.93,143.51l-.28-26.23h-25.26c-1.41.01-1.44,4.06-1.41,5.64l.34,20.85,26.6-.25ZM623.28,143.45l-.27-21.7-20.72-.04-.44,21.45,21.43.29ZM568.25,123.76v2h14v-2h-14ZM569.25,177.66l.05-32.44,10.66.04c.83,0,1.15-2.58.31-2.55l-12.96.4-.18,35.39c2.76,2.31,7.85,3.71,10.62-.14l-8.5-.7ZM543.27,263.34l-.04-71.32-7.61-5.86c-.67-8.46.45-16.35-1.49-25.36l-1.25,26.11,7.65,5.55.11,71.66c.92.13,2.49-.25,2.63-.77ZM557.29,251.4l-7.37-.86-.07-52.81c2.52-4.88,6.82-7.24,12.98-6.5l-.11-29.05-2.28.36.06,25.92-5.89.78-7.23,6.68v54.7c1.13,1.64,3.5,2.94,5.28,3.01,2.23.09,3.97-.42,4.62-2.24ZM342.62,273.89c19.79,5.89,39.59-2.23,50.01-20,15.44-26.31,19.24-74.62-2.63-85.7-21.34-10.81-46.32-1.99-57.87,18.43-15.27,27-21.3,77.82,10.49,87.28ZM611.8,272.49c10.58-2.99,19.14-10.02,24.85-19.5,15.19-25.17,22.41-71.68-1.21-84.26-14.9-7.94-32.22-3.25-42.97,9.32-14.91,17.43-21.73,51.36-16.36,73.73,3.96,16.51,18.63,25.54,35.69,20.71ZM483.99,201.11l-70.45.03v10.49s70.46-.03,70.46-.03v-10.49ZM679.23,233.31l7.33-.45,1.29-17.35.46-10.86c-2.11.14-5.64,1.53-5.88,3.08l-1.53,13.7-1.66,11.89ZM293.73,231.36v-21.55s-21.5-.07-21.5-.07l-.07,21.64,21.57-.02ZM432.71,307.72l10.33-8.13-.05-70.5-11.89-12.65-17.62-.36-1.88,10.54,14.55-.04,6.47,7.17.09,73.97ZM715.11,238.29l-62.91.03v7.93s62.91-.03,62.91-.03v-7.93ZM651.52,282.84c3.62-4.79-.39-8.96-3.42-11.86l-4.79-9.15c-1.78,2.13-2.31,4.61-1.87,6.63,5.35,3.11,8.17,7.58,10.07,14.38ZM535.06,325.55l.51-31.31c2.9-.45,7.35-2.97,7.37-5.37l.21-19.34-2.32-.19-.42,19.47c-.88,1.63-4.28,3.03-7.12,3.7l-.09,31.37,1.87,1.67ZM657.91,299.82c2.97-6.01,2.72-13.08-.96-18.35-1.79,5.83-4.1,12.72.96,18.35ZM368.11,332.84l-.11-50.08-10.29,1.38.28,49.91,10.12-1.21ZM586.27,311.3l-.05-20.81-20.83-.19v20.84s20.88.15,20.88.15ZM660.14,323.66l-.07-18.81-2.54.13-.29,16.1c-3.31-.46-4.54-.45-5.42,2.23l8.31.35Z"/>
  <path class="cls-1" d="M342.62,273.89c-31.78-9.46-25.75-60.28-10.49-87.28,11.54-20.42,36.53-29.24,57.87-18.43,21.87,11.08,18.07,59.39,2.63,85.7-10.42,17.77-30.22,25.89-50.01,20Z"/>
  <path d="M123.99,283.35l-13.17,10.85-13.67-5.3c-1.91-.74-2.95-6.28-1.62-7.74,2.1-2.29,5.04-4.44,7.66-6.66l-12.7,4.82-1.32-8.78,11.44-3.38-11.93-2.06-1.44-10.84,10.42-.89-6.45-2.83,15.61-82.7-32.3.02-.77-3.26c-.18-.77-2.03-.67-4.29-.79-.12-1.66.05-6.05.33-7.8l8.63-1.03,3.61-19.04-10.07.05.08-12.81,11.82-.08,1.37-7.88c4.64,2.58,8.21,1.29,11.82-2.1l-11.59-7.37.99-3.55,33.91-.14,9.38-50.96,9.45.84.07,11.2,9.92.6,1.72-14.42c10.85-1.89,20.92-3.33,33.05-4.25l-.09,10.15,14.89,2.68.64-12.53,14.8.33-10.34,56.49,40.37-.13c4.21-.01,7.74,2.03,7.73,6.58l-10.91,53.8c-1.3,3.59-4.04,5.5-7.78,5.49l-42.27-.05-15.08,83.66c-1.94,10.77,5.31,19.06,15.81,19.83,16.76,1.22,31.24-10.16,30.94,2.33l-1.33,55.03c-17.01,7.92-34.22,12.1-53.4,11.92l1.05-10.99-7.36,4.05c-3.49-.89-7.89-2.59-11-4.23l15.72-12.93-2.64-2.64c-4.49,4.95-9.02,7.64-15.15,9.34l-6.16,1.71-5.58-8.14-21.13,1.21.06-10.68c8.87-5.69,5.35-13.14,12.86-15.6l-4.65-8.37ZM142.88,146.33l31.32-27.05.02-37.67,24.8-.21.18-3.81-28.71.39-.04,38.79-31.15,27.26-.11,16.58,3.59.03.09-14.31ZM103.19,132.9l2.06-9.34-10.37-3.4,1.24,12.11,7.07.62ZM212.24,142.41v-16.55s-16.41.12-16.41.12l-.02,16.31,16.43.13ZM125.97,161.83l-.48-3.31-8.11-.04c-.54,0-1.73,1.29-1.99,1.76s1.52,1.57,2.08,1.57l8.49.03ZM124.54,180.13l8.79-7.65-.06-12.69c0-1-3.08-1.05-3.11-.02l-.33,12.09-7.32,5.91,2.03,2.36ZM175.95,203.96l-67.17.02v3.91s67.18-.02,67.18-.02v-3.91Z"/>
  <rect x="152.95" y="15.62" width="7.58" height="14.71" transform="translate(133.67 179.7) rotate(-89.97)"/>
  <path d="M175.3,17.92l.06-12.94-2.79.44c-.5.08-.66-2.74-.18-2.89l7.76-2.53.14,17.96-4.99-.04Z"/>
  <rect x="189.44" y="32.36" width="7.19" height="12.65"/>
  <rect x="141.08" y="39.45" width="12.25" height="5.38" transform="translate(-.08 .29) rotate(-.11)"/>
  <path class="cls-1" d="M798.89,159.86c0,.75-1.57,3.02-2.18,2.75s-2.17-1.69-2.19-2.36l-.28-11.3c-.02-.87,1.68-3.1,2.45-2.8s2.31,1.98,2.3,2.85l-.11,10.86Z"/>
  <path class="cls-1" d="M75.88,331.51c-.02.47-1.86,2.43-2.18,2.08s-1.66-1.67-1.67-2.14l-.07-10.51c0-.58,2.39-1.6,2.8-1.19.55.54,1.46,2.18,1.43,3.01l-.31,8.76Z"/>
</svg>