<?xml version="1.0" encoding="UTF-8"?>
<svg id="Ebene_1" data-name="Ebene 1" xmlns="http://www.w3.org/2000/svg" viewBox="0 0 505.68 215.64" fill="currentColor">
  <path d="M482.47,202.93c-.19,1.64-2.18,2.57-3.28,2.58-1.37.02-3.14-.81-3.75-2.28-1.87-4.47-3.29-9.22.17-10.65,1.11-.46,3.24-.34,4.15.85,1.93,2.54,3.12,5.96,2.71,9.5ZM477.04,194.55c-1.84.79.22,6.27,2.23,8.91,1.28-1.87-.54-6.57-2.23-8.91Z"/>
  <path d="M24.48,59.63c-.78,1.47-2.94,1.89-4.31,1.36-3.37-1.29-2.08-6.07.35-10.34.79-1.4,3.02-1.78,4.11-1.3,3.5,1.55,2.15,5.95-.15,10.27ZM22.28,58.19l2.1-6.02c.08-.24-1.03-.76-1.19-.57-.11.13-.57.65-.63.81l-1.9,5.46c-.09.27.58,1.24.8,1.07.15-.11.76-.56.82-.74Z"/>
  <path d="M37.93,193.11c-.45,1.68-2.5,2.43-3.84,2.23-1.5-.23-3.07-1.72-2.91-3.64.43-4.97,2.04-9.49,5.82-8.48,1.48.39,2.97,2.22,2.49,4l-1.56,5.89ZM34.86,193.14c1.05-2.49,2.34-5.3,1.54-8.12-2.23,2.46-3.47,8.64-1.54,8.12Z"/>
  <rect x="36.58" y="159.17" width="6.04" height="11.06" transform="translate(-.84 .21) rotate(-.29)"/>
  <rect x="48.28" y="174.76" width="10.62" height="5.43"/>
  <rect x="455.71" y="205.26" width="10.76" height="5.68"/>
  <rect x="33.39" y="62.32" width="10.06" height="5.21"/>
  <rect x="66.55" y="189.82" width="10.27" height="5.09" transform="translate(-.44 .17) rotate(-.13)"/>
  <rect x="60.45" y="206.6" width="4.85" height="9.03" transform="translate(-.67 .2) rotate(-.18)"/>
  <path d="M51.8,206l-4.7-7.8-1.53,1.53c-.3.3-1.07-1.44-1.12-1.76l3.31-4.19,6.56,10.67-2.52,1.54Z"/>
  <path d="M6.47,73.57l-3.88-7.94-1.52,1.32c-.3.26-1.14-1.45-1.07-1.81l3.43-4.01,5.54,11.08c-.5.39-1.76,1.06-2.5,1.36Z"/>
  <polygon points="20.3 95.46 21.67 86.61 19.24 86.94 19.57 84.69 24.88 83.6 23.13 95.93 20.3 95.46"/>
  <rect x="4.52" y="77.11" width="4.33" height="8.8" transform="translate(-74.84 88.08) rotate(-89.92)"/>
  <rect x="24.21" y="71.29" width="3.54" height="7.8" transform="translate(-49.34 100.81) rotate(-89.72)"/>
  <path d="M435.94,156c.47,2.63,10.73.43,16.23-1.7l-5.6,25.45-9.66-1.47-.5,3.48-11.09-3.13c-.05,1.28.46,2.91,1.24,3.34l7.58,4.2-4.44,10.67-30.67-.1c-3.35-.01-5.9-.9-7.57-4.11-2.27-4.36-3.17-9.24-4.07-14.71-7.01,9.87-16.47,16.97-28.75,20.02v-18.65c2.21-1.82,4.13-4.16,3.29-7.19-.78-2.8-3.17-4.86-6.15-4.87s-5.2,2.03-6.02,4.44c-1.11,3.3.8,5.88,3.46,7.69l.09,19.73c-7.53.83-14.24.59-21.49-1.37l-.28-16.01,3.81-2.37v-6.29c2.65-1.49,4.18-3.97,3.65-6.97-.48-2.7-2.9-4.95-5.76-5.15s-5.62,1.75-6.4,4.37c-.9,3.03.24,5.98,3.21,7.55l-.08,3.47-3.85,2.34.19,17.25c-37.55-16.41-34.85-70.97-17.93-103.3l.34,15.02,4.34,2.82-.04,31.71c-2.69,1.64-4.31,4.2-3.67,7.16s2.98,4.92,5.99,5c2.93.07,5.47-1.7,6.32-4.68.78-2.75-.6-5.57-3.35-7.29v-35.04s-4.21-2.7-4.21-2.7l-.03-21.24c5.71-8.02,12.22-14.94,21.49-20.28l.14,26.69-2.34.41-5.15,5.9v31.41s2.82,1.51,2.82,1.51c.28,4.18,3.88,6.91,7.71,6.09s6.03-5.08,4.43-8.65-6.07-4.85-9.59-2.56l-.03-25.54,2.45-3.02,5-.02v-35.21c11.54-5.36,23.79-7.16,36.14-5.38,13.11,1.89,23.32,10.01,28.53,22.64l3.85-16.36c.43-1.83,1.85-3.56,4.01-3.56l15.82-.06.63,7.27,4.93-3.08,1.92,5.24-3.42,4.17,6.39-4.38-.99-8.43,9.17-2.34,4.75,10.08c-1.18,1.48-2.59,3.09-3.08,4.62l-2.42,7.42,4.91,3.13-1.7,9.22-6.34,2.17,4.85,1.48-1.23,5.59c-1.81.27-2.65,1.06-2.95,2.83l-19.04.14-2.21-3.85-6.57.1c-1.41-2.57-3.92-4.06-6.59-3.68-3.03.43-5.14,2.8-5.51,5.47-.43,3.11,1.6,5.66,3.8,6.57,3.26,1.35,6.27-.13,7.89-2.73.92-.54,3.17-.65,3.98-.21l2.13,3.65h21.09s-2.69,14.58-2.69,14.58h-13.04s-2.41,3.76-2.41,3.76c-.89.14-2.73.08-3.71-.12-1.71-3.95-6.28-4.88-9.49-2.57-3.03,2.19-3.38,6.93-.51,9.6s7.55,2.13,9.84-1.52l6.91.03,2.38-3.77,8.98.16-3.53,19.04-25.82-.1-2.13,3.33c-1.72,1.69-3.71.34-4.9-1.04-2.5-2.9-6.95-2.16-9.04.4-2.47,3.02-1.75,7.12,1.25,9.19,3.17,2.2,7.5,1.15,9.22-2.51l6.2-.1,2.4-3.77,21.67.16.61,3.42ZM376.14,88.67l.02-5.06,3.69.1.1-3.9,5.2-.06-.29-2.57-4.92-.03v-4.83s5.21-.07,5.21-.07l-.28-2.56-4.89-.03-.14-3.77-3.64-.07-.08-5.02-2.58-.03v5.16s-4.79-.08-4.79-.08l-.03-5.1-2.71.1v5.05s-3.77,0-3.77,0l-.03,3.76-4.98.02.13,2.61h4.89s-.02,4.85-.02,4.85h-4.83s-.16,2.59-.16,2.59l4.99.07.05,3.84,3.77.1-.05,4.94,2.76-.02v-5.09s4.78.15,4.78.15l.03,5.01,2.6-.08ZM367.81,158.65c7.31-.97,13.49-5.15,17.28-11.33,6.67-10.88,9.92-23.75,8.43-36.42-.65-5.57-3.23-10.72-7.85-13.62-7.22-4.53-16.31-3.35-22.85,1.91-12.24,9.85-17.41,36.89-11.93,49.74,2.85,6.68,9.27,10.73,16.91,9.72Z"/>
  <rect x="475.66" y="33.32" width="7.56" height="15.85"/>
  <polygon points="505.68 66.73 497.35 66.68 497.51 51.75 505.61 51.64 505.68 66.73"/>
  <path d="M488.65,89.29c-2.09,5.37-6.04,10.78-10.22,7.94-3.94-2.67-.79-8.18,2.76-12.53,1.39-1.7,3.8-1.88,5.64-.99s2.72,3.29,1.83,5.59ZM481.88,94.12l3.95-6.55c.2-.33-.28-1.73-.59-1.58-.23.11-1.18.51-1.31.73l-4.14,6.66c-.22.36.4,1.78.78,1.61.29-.12,1.13-.56,1.31-.87Z"/>
  <rect x="452.35" y="45.26" width="13.64" height="7.17" transform="translate(-.11 1.01) rotate(-.13)"/>
  <rect x="455.68" y="78.31" width="12.74" height="6.73" transform="translate(380.18 543.69) rotate(-89.98)"/>
  <rect x="462.34" y="176.48" width="6.72" height="12.91" transform="translate(282.6 648.57) rotate(-89.98)"/>
  <rect x="477.47" y="63.85" width="6.88" height="11.19" transform="translate(410.51 550.22) rotate(-89.89)"/>
  <path d="M498.1,42.28l-3.1-8.34c-.65.52-1.68,1.48-1.82,1.15l-.82-1.84,4.15-3.62,4.34,11.8-2.75.85Z"/>
  <path d="M439.1,212.75c-.87-.12-2.23-.56-2.74-.87l2.96-8.53-2.22-.27c-.49-.06.55-1.86,1.04-1.86l5-.04-4.04,11.57Z"/>
  <rect x="440.19" y="188.12" width="3.29" height="7.91" transform="translate(94.71 526.16) rotate(-67.4)"/>
  <path d="M257.64,187.23c-20.14,12.51-49.54,14.79-72.63,11.24-21.91-3.37-39.91-14.74-46.7-36.34-5.86-18.82-2.54-43.57,4.9-61.71,9.2-22.44,26.38-37.18,50.01-43,16.15-3.97,32.77-4.6,49.24-2.34,23.14,3.17,42.46,15.92,48.54,38.98,1.69,6.39,2.51,12.61,2.41,19.34-.44,28.71-10.65,58.22-35.77,73.83ZM226.92,153.54c9.07-9.36,12.5-31.01,11.39-44.24-.48-5.74-3.31-11.11-8.5-13.5s-10.37-2.11-15.65-1.46c-7.31.89-13.2,4.98-16.55,11.49s-5.02,12.82-6.17,19.8c-1.86,11.26-3.42,26.79,6.79,32.03,7.55,3.87,21.95,2.82,28.68-4.13Z"/>
  <path d="M66.66,178.9c4.26-3.5,3.7-7.67,7.35-9.69l-2.54-4.6-7.84,6.38-8.21-3.3c-1.03-.41-1.73-3.44-.93-4.26l3.48-3.57-6.36,2.27-.73-5.19,6.19-1.96-6.55-1.32-.84-6.32,5.37-.59-3-1.8,5.46-28.86h30.67s.09,12.24.09,12.24l-2.41.25v9.65s9.72-.03,9.72-.03v-9.55s-2.51-.33-2.51-.33v-17.1s-34.55,0-34.55,0l2.7-14.96-19.04.05c-.19-.89-.29-1.83-.67-1.93l-2.4-.67.15-4.4,5.21-.67,2.16-11.25-5.91.09v-7.54s6.96-.15,6.96-.15l.8-4.63c2.78,1.43,5,.79,6.9-1.28l-6.62-4.15c0-.6.46-1.82.88-2.32l19.62.03,5.52-30.04,5.6.19.93,5.85,4.98,1.25,1.02-8.57,19.55-2.53-.03,6.1,8.74,1.55.42-7.3,8.83.06-6.12,33.43h25.03c.84,0,2.38.92,2.82,1.57.52.77.64,2.55.41,3.52l-1.01,4.08-21.3.12c-.88-.9-1.6-2.07-2.4-3.54l-6.46-.16c-1.84-3.8-6.38-4.76-9.45-2.59-3.38,2.39-3.43,7.08-.58,9.76s7.58,1.97,9.68-1.53c.88-.53,3.25-.58,3.75.18l2.28,3.45,23.51-.28-1.92,9.21-57.69-.16-2.36,3.34c-.62.88-3.35.91-3.94-.09-2.12-3.56-6.45-3.88-9.02-2.08-3.68,2.58-3.37,7.39-.84,9.71,3.29,3.01,7.85,2.01,10.01-1.58l6.67-.1,2.19-3.82,21.66.09,32.23.13-1.15,5.89c-.43,2.18-2.27,3.87-4.67,3.85l-25.04-.15-8.86,49.03c-.59,3.24-.1,6.17,2.02,8.66,6.76,7.94,20.2-.09,24.32,1.65.68.28,1.27,1.78,1.25,2.7l-.74,30.49c-.02.89-.5,2.73-1.24,3.08-9.69,4.49-19.96,6.66-30.47,6.5l.62-6.4-4.4,2.44-6.64-2.53,9.33-7.61-1.38-1.52c-3.47,3.82-7.71,5.36-12.72,6.28l-3.12-4.69-12.59.66.15-6.07ZM59.24,75.45l1.03-5.41-5.98-1.81.68,7.1,4.26.12ZM60.96,128.6v20.98h18.68v-20.98h-18.68ZM111.4,185.59h9.87s.05-10.56.05-10.56l2.4-.15v-9.57s-9.78.01-9.78.01l.02,9.64,2.58.03-.08,5.8-5.58-.07c-1.73-2.57-5.12-2.66-7.07-.71s-1.71,5.16.2,6.8c2.42,2.07,5.39,1.21,7.39-1.21Z"/>
  <path d="M105.66,11.54c-.59,0-1.95-.48-2.74-.94l3.06-8.18-1.55-.22c-.37-.05-.57-.65-.46-1.01S104.88.01,105.29.01h4.61s-4.24,11.53-4.24,11.53Z"/>
  <polygon points="95.05 12.6 86.63 12.63 86.64 8.43 94.97 8.45 95.05 12.6"/>
  <rect x="109.18" y="15.92" width="3.99" height="7.36"/>
  <rect x="118.3" y="13.45" width="7.37" height="3.66" transform="translate(-.03 .24) rotate(-.11)"/>
  <rect x="81.3" y="20.12" width="7.57" height="3.33" transform="translate(-.37 1.5) rotate(-1.01)"/>
  <rect x="65.74" y="133.38" width="9.15" height="11.43"/>
</svg>